<svg xmlns="http://www.w3.org/2000/svg" xmlns:xlink="http://www.w3.org/1999/xlink" version="1.1" width="384" height="274"><defs/><g transform=" scale(0.5) translate(-836,-1176)"><rect x="878" y="1438" width="4" height="4" fill="#000000" stroke="none" transform="rotate(180,880,1500)" pointer-events="none"/><rect x="878" y="1558" width="4" height="4" fill="#000000" stroke="none" transform="rotate(180,880,1500)" pointer-events="none"/><path d="M 845.06 1459.12 C 865.06 1459.12 865.06 1459.12 865.06 1459.12" fill="none" stroke="#000000" stroke-width="3" stroke-linecap="round" stroke-miterlimit="10" transform="rotate(180,880,1500)" pointer-events="none"/><path d="M 855.06 1449.12 C 855.06 1469.12 855.06 1469.12 855.06 1469.12" fill="none" stroke="#000000" stroke-width="3" stroke-linecap="round" stroke-miterlimit="10" transform="rotate(180,880,1500)" pointer-events="none"/><path d="M 844 1477.07 C 916 1477.07 916 1477.07 916 1477.07" fill="none" stroke="#000000" stroke-width="4" stroke-linecap="round" stroke-miterlimit="10" transform="rotate(180,880,1500)" pointer-events="none"/><path d="M 862 1492 C 898 1492 898 1492 898 1492" fill="none" stroke="#000000" stroke-width="4" stroke-linecap="round" stroke-miterlimit="10" transform="rotate(180,880,1500)" pointer-events="none"/><path d="M 844 1509.07 C 916 1509.07 916 1509.07 916 1509.07" fill="none" stroke="#000000" stroke-width="4" stroke-linecap="round" stroke-miterlimit="10" transform="rotate(180,880,1500)" pointer-events="none"/><path d="M 862 1524 C 898 1524 898 1524 898 1524" fill="none" stroke="#000000" stroke-width="4" stroke-linecap="round" stroke-miterlimit="10" transform="rotate(180,880,1500)" pointer-events="none"/><path d="M 880 1442 L 880 1476" fill="none" stroke="#000000" stroke-width="4" stroke-linejoin="round" stroke-linecap="square" stroke-miterlimit="10" transform="rotate(180,880,1500)" pointer-events="none"/><path d="M 880 1524 L 880 1558" fill="none" stroke="#000000" stroke-width="4" stroke-linejoin="round" stroke-linecap="square" stroke-miterlimit="10" transform="rotate(180,880,1500)" pointer-events="none"/><rect x="1558" y="1458" width="4" height="4" fill="#000000" stroke="none" transform="rotate(180,1560,1520)" pointer-events="none"/><rect x="1558" y="1578" width="4" height="4" fill="#000000" stroke="none" transform="rotate(180,1560,1520)" pointer-events="none"/><path d="M 1525.06 1479.12 C 1545.06 1479.12 1545.06 1479.12 1545.06 1479.12" fill="none" stroke="#000000" stroke-width="3" stroke-linecap="round" stroke-miterlimit="10" transform="rotate(180,1560,1520)" pointer-events="none"/><path d="M 1535.06 1469.12 C 1535.06 1489.12 1535.06 1489.12 1535.06 1489.12" fill="none" stroke="#000000" stroke-width="3" stroke-linecap="round" stroke-miterlimit="10" transform="rotate(180,1560,1520)" pointer-events="none"/><path d="M 1524 1497.07 C 1596 1497.07 1596 1497.07 1596 1497.07" fill="none" stroke="#000000" stroke-width="4" stroke-linecap="round" stroke-miterlimit="10" transform="rotate(180,1560,1520)" pointer-events="none"/><path d="M 1542 1512 C 1578 1512 1578 1512 1578 1512" fill="none" stroke="#000000" stroke-width="4" stroke-linecap="round" stroke-miterlimit="10" transform="rotate(180,1560,1520)" pointer-events="none"/><path d="M 1524 1529.07 C 1596 1529.07 1596 1529.07 1596 1529.07" fill="none" stroke="#000000" stroke-width="4" stroke-linecap="round" stroke-miterlimit="10" transform="rotate(180,1560,1520)" pointer-events="none"/><path d="M 1542 1544 C 1578 1544 1578 1544 1578 1544" fill="none" stroke="#000000" stroke-width="4" stroke-linecap="round" stroke-miterlimit="10" transform="rotate(180,1560,1520)" pointer-events="none"/><path d="M 1560 1462 L 1560 1496" fill="none" stroke="#000000" stroke-width="4" stroke-linejoin="round" stroke-linecap="square" stroke-miterlimit="10" transform="rotate(180,1560,1520)" pointer-events="none"/><path d="M 1560 1544 L 1560 1578" fill="none" stroke="#000000" stroke-width="4" stroke-linejoin="round" stroke-linecap="square" stroke-miterlimit="10" transform="rotate(180,1560,1520)" pointer-events="none"/><rect x="1058" y="1318" width="4" height="4" fill="#000000" stroke="none" transform="rotate(90,1060,1380)" pointer-events="none"/><rect x="1058" y="1438" width="4" height="4" fill="#000000" stroke="none" transform="rotate(90,1060,1380)" pointer-events="none"/><path d="M 1060 1344 L 1074 1350 L 1060 1356" fill="none" stroke="#000000" stroke-width="4" stroke-linejoin="round" stroke-linecap="round" stroke-miterlimit="10" transform="rotate(90,1060,1380)" pointer-events="none"/><path d="M 1060 1356 L 1046 1362 L 1060 1368" fill="none" stroke="#000000" stroke-width="4" stroke-linejoin="round" stroke-linecap="round" stroke-miterlimit="10" transform="rotate(90,1060,1380)" pointer-events="none"/><path d="M 1060 1368 L 1074 1374 L 1060 1380" fill="none" stroke="#000000" stroke-width="4" stroke-linejoin="round" stroke-linecap="round" stroke-miterlimit="10" transform="rotate(90,1060,1380)" pointer-events="none"/><path d="M 1060 1380 L 1046 1386 L 1060 1392" fill="none" stroke="#000000" stroke-width="4" stroke-linejoin="round" stroke-linecap="round" stroke-miterlimit="10" transform="rotate(90,1060,1380)" pointer-events="none"/><path d="M 1060 1392 L 1074 1398 L 1060 1404" fill="none" stroke="#000000" stroke-width="4" stroke-linejoin="round" stroke-linecap="round" stroke-miterlimit="10" transform="rotate(90,1060,1380)" pointer-events="none"/><path d="M 1060 1404 L 1046 1410 L 1060 1416" fill="none" stroke="#000000" stroke-width="4" stroke-linejoin="round" stroke-linecap="round" stroke-miterlimit="10" transform="rotate(90,1060,1380)" pointer-events="none"/><path d="M 1060 1322 L 1060 1342" fill="#000000" stroke="#000000" stroke-width="4" stroke-linecap="square" stroke-miterlimit="10" transform="rotate(90,1060,1380)" pointer-events="none"/><path d="M 1060 1418 L 1060 1438" fill="#000000" stroke="#000000" stroke-width="4" stroke-linecap="square" stroke-miterlimit="10" transform="rotate(90,1060,1380)" pointer-events="none"/><rect x="1558" y="1258" width="4" height="4" fill="#000000" stroke="none" pointer-events="none"/><rect x="1558" y="1378" width="4" height="4" fill="#000000" stroke="none" pointer-events="none"/><path d="M 1560 1284 L 1574 1290 L 1560 1296" fill="none" stroke="#000000" stroke-width="4" stroke-linejoin="round" stroke-linecap="round" stroke-miterlimit="10" pointer-events="none"/><path d="M 1560 1296 L 1546 1302 L 1560 1308" fill="none" stroke="#000000" stroke-width="4" stroke-linejoin="round" stroke-linecap="round" stroke-miterlimit="10" pointer-events="none"/><path d="M 1560 1308 L 1574 1314 L 1560 1320" fill="none" stroke="#000000" stroke-width="4" stroke-linejoin="round" stroke-linecap="round" stroke-miterlimit="10" pointer-events="none"/><path d="M 1560 1320 L 1546 1326 L 1560 1332" fill="none" stroke="#000000" stroke-width="4" stroke-linejoin="round" stroke-linecap="round" stroke-miterlimit="10" pointer-events="none"/><path d="M 1560 1332 L 1574 1338 L 1560 1344" fill="none" stroke="#000000" stroke-width="4" stroke-linejoin="round" stroke-linecap="round" stroke-miterlimit="10" pointer-events="none"/><path d="M 1560 1344 L 1546 1350 L 1560 1356" fill="none" stroke="#000000" stroke-width="4" stroke-linejoin="round" stroke-linecap="round" stroke-miterlimit="10" pointer-events="none"/><path d="M 1560 1262 L 1560 1282" fill="#000000" stroke="#000000" stroke-width="4" stroke-linecap="square" stroke-miterlimit="10" pointer-events="none"/><path d="M 1560 1358 L 1560 1378" fill="#000000" stroke="#000000" stroke-width="4" stroke-linecap="square" stroke-miterlimit="10" pointer-events="none"/><rect x="1238" y="1638" width="4" height="4" fill="#000000" stroke="none" pointer-events="none"/><path d="M 1218 1682 C 1262.04 1682 1262.04 1682 1262.04 1682" fill="none" stroke="#000000" stroke-width="4" stroke-linecap="round" stroke-miterlimit="10" pointer-events="none"/><path d="M 1226 1694 C 1245.14 1694 1254 1694 1254 1694" fill="none" stroke="#000000" stroke-width="4" stroke-linecap="round" stroke-miterlimit="10" pointer-events="none"/><path d="M 1234 1706 C 1240.24 1706 1246 1706 1246 1706" fill="none" stroke="#000000" stroke-width="4" stroke-linecap="round" stroke-miterlimit="10" pointer-events="none"/><path d="M 1240 1642 L 1240 1678" fill="#000000" stroke="#000000" stroke-width="4" stroke-linecap="square" stroke-miterlimit="10" pointer-events="none"/><path d="M 880 1440 L 880 1380 L 1000 1380" fill="none" stroke="#000000" stroke-width="4" stroke-miterlimit="10" pointer-events="none"/><path d="M 880 1560 L 880 1640 L 1240 1640" fill="none" stroke="#000000" stroke-width="4" stroke-miterlimit="10" pointer-events="none"/><rect x="1238" y="1318" width="4" height="4" fill="#000000" stroke="none" pointer-events="none"/><rect x="1238" y="1438" width="4" height="4" fill="#000000" stroke="none" pointer-events="none"/><rect x="1158" y="1378" width="4" height="4" fill="#000000" stroke="none" pointer-events="none"/><path d="M 1240 1322 L 1240 1348" fill="#000000" stroke="#000000" stroke-width="4" stroke-linecap="square" stroke-miterlimit="10" pointer-events="none"/><path d="M 1240 1412 L 1240 1438" fill="#000000" stroke="#000000" stroke-width="4" stroke-linecap="square" stroke-miterlimit="10" pointer-events="none"/><path d="M 1162 1380 L 1208 1380" fill="#000000" stroke="#000000" stroke-width="4" stroke-linecap="square" stroke-miterlimit="10" pointer-events="none"/><path d="M 1210 1390 L 1240 1410" fill="none" stroke="#000000" stroke-width="4" stroke-linejoin="round" stroke-linecap="round" stroke-miterlimit="10" pointer-events="none"/><path d="M 1210 1370 L 1240 1350" fill="none" stroke="#000000" stroke-width="4" stroke-linejoin="round" stroke-linecap="round" stroke-miterlimit="10" pointer-events="none"/><path d="M 1210 1346 L 1210 1414" fill="none" stroke="#000000" stroke-width="4" stroke-linejoin="round" stroke-linecap="round" stroke-miterlimit="10" pointer-events="none"/><path d="M 1226.87 1393.94 L 1211.87 1391.27 L 1220.28 1403.97 Z" fill="#000000" stroke="#000000" stroke-width="2" stroke-linejoin="round" stroke-linecap="round" stroke-miterlimit="10" pointer-events="none"/><path d="M 1120 1380 L 1160 1380" fill="none" stroke="#000000" stroke-width="4" stroke-miterlimit="10" pointer-events="none"/><path d="M 1560 1260 L 1560 1180 L 1240 1180 L 1240 1320" fill="none" stroke="#000000" stroke-width="4" stroke-miterlimit="10" pointer-events="none"/><path d="M 1560 1460 L 1560 1380" fill="none" stroke="#000000" stroke-width="4" stroke-miterlimit="10" pointer-events="none"/><path d="M 1560 1580 L 1560 1640 L 1240 1640" fill="none" stroke="#000000" stroke-width="4" stroke-miterlimit="10" pointer-events="none"/><path d="M 1240 1440 L 1240 1636" fill="none" stroke="#000000" stroke-width="4" stroke-miterlimit="10" pointer-events="none"/><ellipse cx="1240" cy="1640" rx="4" ry="4" fill="#000000" stroke="#000000" stroke-width="4" pointer-events="none"/></g></svg>